<?xml version="1.0" standalone="no"?>
<!DOCTYPE svg PUBLIC "-//W3C//DTD SVG 20010904//EN"
 "http://www.w3.org/TR/2001/REC-SVG-20010904/DTD/svg10.dtd">
<svg version="1.0" xmlns="http://www.w3.org/2000/svg"
 width="1230.000000pt" height="855.000000pt" viewBox="0 0 1230.000000 855.000000"
 preserveAspectRatio="xMidYMid meet">
<metadata>
Created by potrace 1.16, written by Peter Selinger 2001-2019
</metadata>
<g transform="translate(0.000000,855.000000) scale(0.100000,-0.100000)"
fill="#000000" stroke="none">
<path d="M1959 7732 c-75 -20 -136 -61 -145 -97 -6 -23 -11 -25 -67 -25 -55 0
-64 -3 -94 -32 l-33 -32 34 -36 35 -35 -11 -105 c-21 -212 2 -452 57 -576 24
-55 86 -130 114 -139 10 -3 49 -41 89 -84 l71 -79 -34 -63 c-32 -59 -35 -71
-35 -151 0 -81 2 -88 20 -88 20 0 20 -7 20 -285 l0 -285 -26 10 c-14 6 -52 10
-84 10 -118 0 -227 -65 -285 -171 -27 -49 -30 -62 -30 -149 0 -80 4 -102 24
-140 44 -86 113 -142 215 -176 l41 -14 -72 4 c-156 7 -275 113 -303 268 -9 52
-9 52 -6 -22 5 -120 66 -214 174 -267 47 -23 70 -28 132 -28 41 0 90 4 108 8
l32 9 0 -87 c0 -92 13 -135 55 -191 l25 -33 0 -1610 0 -1610 -21 -3 c-18 -3
-30 -32 -85 -208 -36 -112 -67 -206 -69 -208 -2 -2 -57 -8 -122 -13 -262 -20
-462 -53 -478 -79 -9 -15 38 -30 155 -50 488 -84 2021 -92 2688 -14 139 16
244 42 244 59 0 38 -288 77 -754 101 l-127 6 -54 72 c-29 39 -57 77 -61 85
-17 27 -45 175 -36 190 4 9 8 113 9 231 0 118 5 289 10 380 5 91 7 177 4 192
-4 23 0 27 41 43 41 16 45 20 40 44 -4 18 0 32 10 40 13 11 20 9 42 -8 38 -30
70 -27 89 9 8 16 15 35 15 43 0 7 21 29 48 47 173 122 414 341 459 418 16 27
23 50 19 65 -23 92 -286 269 -678 457 l-157 75 -27 60 c-14 33 -37 83 -50 110
-13 28 -31 73 -41 100 -17 46 -23 52 -71 71 -43 17 -63 34 -119 105 -82 104
-147 203 -169 258 -10 25 -39 62 -74 94 -31 28 -94 96 -139 149 -79 94 -83 98
-131 104 -31 4 -50 12 -50 19 0 29 13 45 36 45 65 0 146 60 180 135 29 62 31
127 4 195 -11 28 -20 66 -20 86 0 52 -52 145 -110 197 -56 51 -123 78 -197 79
l-49 1 -2 91 c-1 50 -4 270 -7 489 -6 394 -6 397 15 397 19 0 20 6 20 86 0 83
-2 90 -40 156 l-40 70 67 74 c37 41 76 77 86 80 40 13 119 171 153 305 21 85
30 342 15 438 l-12 73 38 32 37 33 -28 36 c-26 34 -32 37 -81 37 -48 0 -53 2
-59 25 -22 86 -233 139 -387 97z m-100 -299 c-18 -79 -1 -328 41 -607 11 -71
20 -133 20 -137 0 -5 -15 -9 -33 -9 -64 0 -130 99 -163 245 -24 104 -28 501
-5 528 10 13 30 17 81 17 l68 0 -9 -37z m377 29 c18 -11 37 -219 37 -397 0
-172 -15 -271 -52 -344 l-21 -41 -124 0 -124 0 -11 63 c-52 307 -75 696 -41
717 17 11 319 13 336 2z m167 -4 c14 -10 19 -37 25 -132 14 -213 -12 -379 -81
-529 -38 -82 -67 -117 -96 -117 -19 0 -19 1 -1 38 35 71 50 182 50 359 0 151
-11 309 -25 371 -5 21 -2 22 53 22 32 0 66 -6 75 -12z m-84 -3987 c19 -12 58
-17 154 -21 l128 -5 3 -155 c3 -203 21 -247 123 -307 52 -30 49 -23 112 -338
54 -273 58 -249 -47 -261 -82 -9 -86 -12 -77 -73 4 -28 10 -53 13 -55 4 -2 42
3 85 11 44 8 81 12 84 9 3 -2 -27 -50 -67 -105 l-72 -101 11 -97 c13 -121 26
-166 55 -199 47 -55 96 0 96 109 0 119 15 79 26 -70 7 -81 17 -166 24 -189 11
-37 10 -43 -14 -78 -14 -22 -26 -51 -26 -66 0 -29 31 -64 70 -78 22 -8 24 -14
21 -53 -1 -24 -15 -69 -29 -99 -24 -48 -27 -66 -25 -138 l3 -82 -317 2 -317 3
-62 195 c-53 166 -65 195 -83 198 l-21 3 1 1217 0 1217 62 -189 c49 -150 67
-192 86 -205z m1074 -651 c89 -22 170 -44 179 -48 13 -5 -9 -26 -98 -91 -63
-46 -131 -89 -149 -95 -19 -7 -43 -20 -54 -30 -19 -18 -20 -18 -25 5 -6 31
-26 236 -26 272 0 15 2 27 5 27 3 0 79 -18 168 -40z"/>
<path d="M2031 6993 c-56 -47 -24 -133 49 -133 30 0 43 6 60 27 39 50 3 123
-60 123 -15 0 -37 -8 -49 -17z"/>
<path d="M8236 6819 c-474 -55 -901 -359 -1107 -787 -51 -106 -103 -264 -120
-364 -7 -43 -15 -78 -19 -78 -3 0 -14 17 -25 37 -30 57 -132 191 -194 256 -71
75 -188 170 -199 163 -13 -8 -57 -136 -81 -231 -24 -98 -41 -218 -41 -291 0
-30 -2 -54 -5 -54 -3 0 -37 16 -76 35 -38 20 -109 49 -157 65 -98 33 -284 73
-317 68 -21 -3 -21 -4 -9 -78 43 -251 165 -506 316 -659 84 -85 145 -130 258
-190 l95 -50 -908 -3 -909 -3 -29 -33 -29 -32 0 -425 0 -425 -161 0 -161 0
-29 -29 -29 -29 0 -481 0 -481 671 0 670 0 15 -35 c29 -71 88 -65 -676 -65
l-690 0 0 45 0 45 -96 0 c-52 0 -104 -5 -115 -10 -50 -27 -49 -19 -49 -770 0
-751 -1 -743 49 -770 14 -7 1061 -10 3274 -10 l3254 0 27 80 c47 141 53 330
16 485 -18 76 -83 204 -129 257 -83 94 -203 125 -307 79 -59 -27 -131 -100
-170 -176 -16 -30 -32 -55 -36 -55 -5 0 -8 187 -8 416 l0 416 -29 29 c-29 28
-32 29 -130 29 l-101 0 0 -45 0 -45 -1837 1 -1838 0 150 47 150 46 879 3 c558
2 890 0 908 -6 17 -6 28 -6 28 0 0 5 155 9 401 9 220 0 399 3 397 8 -83 161
-96 268 -49 393 23 58 86 159 101 159 5 0 27 -37 50 -82 85 -174 80 -256 -28
-470 -2 -5 152 -8 342 -8 l346 0 0 470 c0 511 0 513 -55 538 -16 8 -81 12
-175 12 l-150 0 0 -50 0 -50 -623 0 -624 0 -11 39 c-7 21 -12 43 -12 50 0 8
167 11 630 11 l630 0 0 426 c0 285 -4 432 -11 446 -26 49 -15 48 -991 48
l-913 0 82 44 c172 93 281 190 380 338 100 151 186 376 209 548 8 60 13 59
-141 30 -119 -23 -246 -66 -349 -116 -37 -19 -69 -34 -71 -34 -2 0 -6 37 -10
83 -10 134 -33 251 -70 365 -46 140 -46 140 -82 117 -55 -35 -260 -251 -312
-330 -47 -70 -53 -75 -47 -45 28 137 75 280 130 388 86 168 255 367 415 487
194 146 451 246 696 270 l60 6 -65 -23 c-71 -25 -141 -64 -189 -103 -49 -42
-109 -141 -136 -226 -33 -105 -33 -119 3 -119 23 0 151 40 203 64 14 6 18 -4
27 -66 14 -91 40 -178 53 -178 16 0 132 123 154 163 11 20 22 37 26 37 3 0 20
-21 37 -47 43 -67 139 -160 152 -147 14 14 50 161 50 207 0 33 3 38 18 32 70
-30 148 -55 190 -61 l50 -6 -9 43 c-42 221 -171 362 -380 414 -35 9 -78 21
-95 26 -34 10 -78 10 -178 -2z m-1262 -2973 c86 -51 111 -165 62 -286 -21 -50
-138 -258 -168 -297 -8 -9 -33 -1 -101 34 -262 130 -337 202 -337 320 1 100
75 173 177 173 29 0 64 -5 78 -12 24 -11 29 -9 52 20 56 72 160 93 237 48z
m-1606 -145 c7 -21 12 -43 12 -50 0 -8 -96 -11 -350 -11 l-350 0 0 50 0 50
338 0 339 0 11 -39z"/>
<path d="M8370 6163 c-74 -27 -76 -145 -2 -171 65 -23 122 19 122 88 0 61 -63
104 -120 83z"/>
</g>
</svg>
